<?xml version="1.0" encoding="UTF-8"?>
<svg version="1.1" xmlns="http://www.w3.org/2000/svg" width="94" height="94">
<path d="M0 0 C0.90105469 0.00902344 1.80210938 0.01804687 2.73046875 0.02734375 C3.41753906 0.03894531 4.10460937 0.05054688 4.8125 0.0625 C5.1425 0.7225 5.4725 1.3825 5.8125 2.0625 C6.49828125 2.74699219 7.1840625 3.43148438 7.890625 4.13671875 C10.56480171 8.20777232 10.05951526 11.1691333 9.5625 15.875 C9.49675781 16.66326172 9.43101563 17.45152344 9.36328125 18.26367188 C9.1991257 20.19836232 9.00844175 22.13076994 8.8125 24.0625 C9.46054469 12.75523743 9.46054469 12.75523743 12.8125 8.0625 C19.1291134 3.1999585 25.1943696 2.93337915 32.8125 3.0625 C33.080625 4.135 33.34875 5.2075 33.625 6.3125 C34.70731331 9.73033151 35.70410704 11.31242223 37.8125 14.0625 C38.5 16.8125 38.5 16.8125 38.8125 19.0625 C38.750625 17.886875 38.68875 16.71125 38.625 15.5 C38.66442634 11.04482348 39.43668245 7.92320352 41.8125 4.0625 C47.24591748 -0.35459478 53.08549232 -0.43375467 59.8125 0.0625 C60.10125 1.155625 60.39 2.24875 60.6875 3.375 C61.63143204 7.10263845 61.63143204 7.10263845 63.8125 10.0625 C63.859375 13.4609375 63.859375 13.4609375 63.5625 17.4375 C63.47484375 18.74460937 63.3871875 20.05171875 63.296875 21.3984375 C62.863237 24.67869913 62.14071216 27.06857915 60.8125 30.0625 C60.8125 30.7225 60.8125 31.3825 60.8125 32.0625 C61.59625 32.31 62.38 32.5575 63.1875 32.8125 C66.27937706 34.28482241 66.49948746 35.01696469 67.8125 38.0625 C68.25142578 39.07376953 68.25142578 39.07376953 68.69921875 40.10546875 C70.86272557 45.89944556 70.87518592 49.97620791 69.8125 56.0625 C66.98838235 57.00387255 65.28331968 57.17975382 62.36328125 57.16015625 C61.51572266 57.15693359 60.66816406 57.15371094 59.79492188 57.15039062 C58.91384766 57.14201172 58.03277344 57.13363281 57.125 57.125 C55.78598633 57.11823242 55.78598633 57.11823242 54.41992188 57.11132812 C52.21738013 57.09954983 50.01497401 57.08310164 47.8125 57.0625 C47.8125 59.3725 47.8125 61.6825 47.8125 64.0625 C47.1525 64.0625 46.4925 64.0625 45.8125 64.0625 C45.3175 65.5475 45.3175 65.5475 44.8125 67.0625 C30.9525 67.0625 17.0925 67.0625 2.8125 67.0625 C0.8169484 63.07139681 0.61703935 61.36263434 0.8125 57.0625 C-0.07272339 57.07035522 -0.07272339 57.07035522 -0.97583008 57.07836914 C-3.65054255 57.09916047 -6.32523801 57.11216701 -9 57.125 C-9.92876953 57.13337891 -10.85753906 57.14175781 -11.81445312 57.15039062 C-12.70712891 57.15361328 -13.59980469 57.15683594 -14.51953125 57.16015625 C-15.34171143 57.16539307 -16.1638916 57.17062988 -17.01098633 57.17602539 C-19.1875 57.0625 -19.1875 57.0625 -22.1875 56.0625 C-23.63234801 47.78746142 -22.33788993 42.55027028 -18.75 35.0625 C-17.1875 33.0625 -17.1875 33.0625 -15 32.25 C-14.401875 32.188125 -13.80375 32.12625 -13.1875 32.0625 C-13.5175 31.0725 -13.8475 30.0825 -14.1875 29.0625 C-14.8475 28.7325 -15.5075 28.4025 -16.1875 28.0625 C-17.44183458 24.29949626 -17.29445422 20.79039091 -17.25 16.875 C-17.24548828 16.12541016 -17.24097656 15.37582031 -17.23632812 14.60351562 C-17.22456354 12.75647617 -17.20662865 10.90947787 -17.1875 9.0625 C-16.5275 9.0625 -15.8675 9.0625 -15.1875 9.0625 C-15.14625 8.485 -15.105 7.9075 -15.0625 7.3125 C-13.73250609 3.89251567 -11.28661668 2.85998768 -8.1875 1.0625 C-5.17259443 0.05753148 -3.14568308 -0.04085303 0 0 Z M19.8125 5.0625 C19.8125 5.3925 19.8125 5.7225 19.8125 6.0625 C21.4625 6.0625 23.1125 6.0625 24.8125 6.0625 C24.8125 5.7325 24.8125 5.4025 24.8125 5.0625 C23.1625 5.0625 21.5125 5.0625 19.8125 5.0625 Z M-15.1875 25.0625 C-14.1875 27.0625 -14.1875 27.0625 -14.1875 27.0625 Z M9.8125 25.0625 C9.8125 27.3725 9.8125 29.6825 9.8125 32.0625 C10.1425 32.0625 10.4725 32.0625 10.8125 32.0625 C10.8125 29.7525 10.8125 27.4425 10.8125 25.0625 C10.4825 25.0625 10.1525 25.0625 9.8125 25.0625 Z M36.8125 25.0625 C36.8125 27.0425 36.8125 29.0225 36.8125 31.0625 C37.1425 31.0625 37.4725 31.0625 37.8125 31.0625 C37.8125 29.0825 37.8125 27.1025 37.8125 25.0625 C37.4825 25.0625 37.1525 25.0625 36.8125 25.0625 Z M6.8125 26.0625 C5.59559467 27.82779595 5.59559467 27.82779595 4.8125 30.0625 C5.59559467 32.29720405 5.59559467 32.29720405 6.8125 34.0625 C7.8025 33.7325 8.7925 33.4025 9.8125 33.0625 C9.1525 30.7525 8.4925 28.4425 7.8125 26.0625 C7.4825 26.0625 7.1525 26.0625 6.8125 26.0625 Z M39.8125 26.0625 C39.1525 28.3725 38.4925 30.6825 37.8125 33.0625 C38.8025 33.0625 39.7925 33.0625 40.8125 33.0625 C41.4725 31.7425 42.1325 30.4225 42.8125 29.0625 C41.8225 28.0725 40.8325 27.0825 39.8125 26.0625 Z M-11.1875 31.0625 C-10.1875 33.0625 -10.1875 33.0625 -10.1875 33.0625 Z M2.8125 31.0625 C3.8125 33.0625 3.8125 33.0625 3.8125 33.0625 Z M35.8125 31.0625 C36.8125 34.0625 36.8125 34.0625 36.8125 34.0625 Z M43.8125 31.0625 C44.8125 33.0625 44.8125 33.0625 44.8125 33.0625 Z M57.8125 31.0625 C57.8125 31.7225 57.8125 32.3825 57.8125 33.0625 C58.4725 32.7325 59.1325 32.4025 59.8125 32.0625 C59.1525 31.7325 58.4925 31.4025 57.8125 31.0625 Z M10.8125 32.0625 C11.8125 34.0625 11.8125 34.0625 11.8125 34.0625 Z M34.8125 34.0625 C34.4825 35.3825 34.1525 36.7025 33.8125 38.0625 C34.4725 37.7325 35.1325 37.4025 35.8125 37.0625 C35.4825 36.0725 35.1525 35.0825 34.8125 34.0625 Z M11.8125 35.0625 C12.1425 36.0525 12.4725 37.0425 12.8125 38.0625 C13.4725 37.7325 14.1325 37.4025 14.8125 37.0625 C13.8225 36.4025 12.8325 35.7425 11.8125 35.0625 Z M14.8125 38.0625 C14.8125 39.0525 14.8125 40.0425 14.8125 41.0625 C15.4725 40.4025 16.1325 39.7425 16.8125 39.0625 C16.1525 38.7325 15.4925 38.4025 14.8125 38.0625 Z M30.8125 38.0625 C31.8125 40.0625 31.8125 40.0625 31.8125 40.0625 Z M45.8125 55.0625 C45.8125 56.7125 45.8125 58.3625 45.8125 60.0625 C46.1425 60.0625 46.4725 60.0625 46.8125 60.0625 C46.8125 58.4125 46.8125 56.7625 46.8125 55.0625 C46.4825 55.0625 46.1525 55.0625 45.8125 55.0625 Z " fill="#1D33D1" transform="translate(23.1875,14.9375)"/>
<path d="M0 0 C0.268125 1.0725 0.53625 2.145 0.8125 3.25 C1.69868619 6.86676135 1.69868619 6.86676135 3.4921875 8.796875 C5.54019842 11.78930546 5.81642317 14.42521733 6.3125 18 C6.49425781 19.216875 6.67601563 20.43375 6.86328125 21.6875 C6.9979676 24.9507579 6.78046081 26.33264298 5 29 C4.67 28.67 4.34 28.34 4 28 C3.73445313 28.63808594 3.46890625 29.27617188 3.1953125 29.93359375 C2.84210937 30.75988281 2.48890625 31.58617188 2.125 32.4375 C1.60292969 33.67306641 1.60292969 33.67306641 1.0703125 34.93359375 C0 37 0 37 -2 38 C-2.33 38.66 -2.66 39.32 -3 40 C-4 42 -4 42 -6 43 C-12.47058824 43.35294118 -12.47058824 43.35294118 -16 41 C-16.67939174 39.00428677 -17.34561559 37.00405227 -18 35 C-19.43750191 33.31201173 -19.43750191 33.31201173 -21 32 C-24.48926537 26.76610194 -25.2833867 24.52872077 -24.3125 18.125 C-24.14363281 16.93132813 -23.97476563 15.73765625 -23.80078125 14.5078125 C-22.83488028 10.2766951 -21.71605154 6.48426258 -18.3515625 3.57421875 C-11.93470964 0.27868572 -7.06283544 -0.11970908 0 0 Z M-13 2 C-13 2.33 -13 2.66 -13 3 C-11.35 3 -9.7 3 -8 3 C-8 2.67 -8 2.34 -8 2 C-9.65 2 -11.3 2 -13 2 Z " fill="#FEC083" transform="translate(56,18)"/>
<path d="M0 0 C0.90105469 0.00902344 1.80210938 0.01804687 2.73046875 0.02734375 C3.41753906 0.03894531 4.10460937 0.05054688 4.8125 0.0625 C5.1425 0.7225 5.4725 1.3825 5.8125 2.0625 C6.5034375 2.7328125 7.194375 3.403125 7.90625 4.09375 C10.66247177 8.38622652 9.9594825 11.6499468 9.3125 16.5625 C9.19261719 17.82513672 9.19261719 17.82513672 9.0703125 19.11328125 C8.46888689 24.2741632 7.49307092 27.19280884 3.8125 31.0625 C3.13283324 32.72390763 2.46311095 34.38950041 1.8125 36.0625 C-1.17344424 37.55547212 -3.89603624 37.18005228 -7.1875 37.0625 C-9.1875 36.0625 -9.1875 36.0625 -10 33.6875 C-11.4790693 30.41797839 -13.12691855 29.78898184 -16.1875 28.0625 C-17.44183458 24.29949626 -17.29445422 20.79039091 -17.25 16.875 C-17.24548828 16.12541016 -17.24097656 15.37582031 -17.23632812 14.60351562 C-17.22456354 12.75647617 -17.20662865 10.90947787 -17.1875 9.0625 C-16.5275 9.0625 -15.8675 9.0625 -15.1875 9.0625 C-15.14625 8.485 -15.105 7.9075 -15.0625 7.3125 C-13.73250609 3.89251567 -11.28661668 2.85998768 -8.1875 1.0625 C-5.17259443 0.05753148 -3.14568308 -0.04085303 0 0 Z M-15.1875 25.0625 C-14.1875 27.0625 -14.1875 27.0625 -14.1875 27.0625 Z " fill="#FDC385" transform="translate(23.1875,14.9375)"/>
<path d="M0 0 C0.28875 1.093125 0.5775 2.18625 0.875 3.3125 C1.81893204 7.04013845 1.81893204 7.04013845 4 10 C4.08203125 13.3984375 4.08203125 13.3984375 3.8125 17.375 C3.73644531 18.68210937 3.66039063 19.98921875 3.58203125 21.3359375 C2.99240535 25.04781065 2.12910864 26.96366033 0 30 C-0.36480469 30.66644531 -0.72960937 31.33289063 -1.10546875 32.01953125 C-3.95030577 36.73353916 -3.95030577 36.73353916 -7.03125 37.515625 C-9.1875 37.5625 -9.1875 37.5625 -13 37 C-15 35 -15 35 -15.9375 32.625 C-16.85046836 29.9855178 -16.85046836 29.9855178 -18.5625 28.125 C-21.70632311 23.47760931 -21.56343437 16.50432039 -21 11 C-20.0555995 7.45849811 -19.26754781 5.03045253 -16.37109375 2.67578125 C-11.04801547 -0.3890214 -6.0125616 -0.44354963 0 0 Z " fill="#FCBA7D" transform="translate(83,15)"/>
<path d="M0 0 C0.33 0.66 0.66 1.32 1 2 C2.2065625 2.433125 2.2065625 2.433125 3.4375 2.875 C6.52734119 4.23151564 6.70252178 4.99220957 8 8 C8.29261719 8.67417969 8.58523437 9.34835938 8.88671875 10.04296875 C11.05022557 15.83694556 11.06268592 19.91370791 10 26 C7.17588235 26.94137255 5.47081968 27.11725382 2.55078125 27.09765625 C1.70322266 27.09443359 0.85566406 27.09121094 -0.01757812 27.08789062 C-0.89865234 27.07951172 -1.77972656 27.07113281 -2.6875 27.0625 C-3.58017578 27.05798828 -4.47285156 27.05347656 -5.39257812 27.04882812 C-7.59511987 27.03704983 -9.79752599 27.02060164 -12 27 C-12 29.31 -12 31.62 -12 34 C-12.66 34 -13.32 34 -14 34 C-14.33 34.99 -14.66 35.98 -15 37 C-18.63 36.34 -22.26 35.68 -26 35 C-26 34.67 -26 34.34 -26 34 C-21.05 33.505 -21.05 33.505 -16 33 C-15.87625 32.236875 -15.7525 31.47375 -15.625 30.6875 C-15 28 -15 28 -13 25 C-13.66 25 -14.32 25 -15 25 C-17.875 18.375 -17.875 18.375 -19 15 C-21.50447516 13.78130071 -21.50447516 13.78130071 -24 13 C-24 9 -24 9 -22.875 7.375 C-20.41653502 5.57212568 -17.91117102 4.84100496 -15 4 C-14.34 4.66 -13.68 5.32 -13 6 C-10.07096914 6.27895532 -7.84211866 6.4902217 -5 6 C-3.04841514 4.2322188 -3.04841514 4.2322188 -2 2 C-1.34 1.34 -0.68 0.68 0 0 Z " fill="#1D2FBE" transform="translate(83,45)"/>
<path d="M0 0 C1.32 0.99 2.64 1.98 4 3 C4.66 2.67 5.32 2.34 6 2 C6.28875 2.78375 6.5775 3.5675 6.875 4.375 C8.1340494 7.31278193 9.1415622 8.5707811 12 10 C12 11.32 12 12.64 12 14 C15.50147041 15.1671568 18.32670036 15.13357453 22 15 C24.51083114 13.74458443 24.87125446 12.49936512 26 10 C26.66 10 27.32 10 28 10 C29.32 7.03 30.64 4.06 32 1 C32.99 1.66 33.98 2.32 35 3 C35.99 2.01 36.98 1.02 38 0 C38.66 1.32 39.32 2.64 40 4 C39.43410156 4.32613281 38.86820313 4.65226562 38.28515625 4.98828125 C37.55167969 5.42527344 36.81820312 5.86226562 36.0625 6.3125 C35.33160156 6.74175781 34.60070313 7.17101563 33.84765625 7.61328125 C31.70022588 8.95110254 31.70022588 8.95110254 31 12 C31.804375 12.37125 32.60875 12.7425 33.4375 13.125 C36 15 36 15 37.0625 17.875 C36.98152557 21.92372134 35.8662745 23.21119238 33 26 C30.875 27.375 30.875 27.375 29 28 C28.34 27.67 27.68 27.34 27 27 C26.67 27.66 26.34 28.32 26 29 C17.80957567 31.73014144 8.16860894 30.25340936 0 28 C-0.66611297 24.97281332 -1.13046816 22.10514229 -1 19 C1.25 16.125 1.25 16.125 4 14 C5.77277259 12.47992158 5.77277259 12.47992158 7 11 C7 10.01 7 9.02 7 8 C6.2575 7.731875 5.515 7.46375 4.75 7.1875 C2.13363446 6.05770579 0.19812889 4.79106798 -2 3 C-1.34 2.01 -0.68 1.02 0 0 Z " fill="#37C0FA" transform="translate(28,45)"/>
<path d="M0 0 C2 1 2 1 2.703125 2.85546875 C4.11129725 8.86031756 3.79636454 12.40727093 1 18 C-12.2 18.33 -25.4 18.66 -39 19 C-41.35840782 14.28318437 -41.10977801 11.96854741 -40 7 C-38.9375 4.5 -38.9375 4.5 -38 3 C-37.67 5.31 -37.34 7.62 -37 10 C-28.3387414 11.25981943 -19.72998757 11.09020653 -11 11 C-10.67 10.01 -10.34 9.02 -10 8 C-8.515 8.495 -8.515 8.495 -7 9 C-4.03595495 6.19195732 -1.55500981 3.81684226 0 0 Z " fill="#2C98F1" transform="translate(65,63)"/>
<path d="M0 0 C3.17702374 1.58851187 4.62395623 3.82838691 6 7 C8.76706791 19.06050308 8.76706791 19.06050308 7.0390625 23.4296875 C6.69617188 23.94789062 6.35328125 24.46609375 6 25 C5.67 24.67 5.34 24.34 5 24 C4.73445313 24.63808594 4.46890625 25.27617188 4.1953125 25.93359375 C3.84210937 26.75988281 3.48890625 27.58617188 3.125 28.4375 C2.77695312 29.26121094 2.42890625 30.08492187 2.0703125 30.93359375 C1 33 1 33 -1 34 C-1.33 34.66 -1.66 35.32 -2 36 C-3 38 -3 38 -5 39 C-11.47058824 39.35294118 -11.47058824 39.35294118 -15 37 C-15.25 34.4375 -15.25 34.4375 -15 32 C-14 31 -14 31 -11.71484375 30.90234375 C-10.34005859 30.91974609 -10.34005859 30.91974609 -8.9375 30.9375 C-8.01839844 30.94652344 -7.09929688 30.95554687 -6.15234375 30.96484375 C-5.44207031 30.97644531 -4.73179688 30.98804687 -4 31 C-3.58621094 30.04867187 -3.58621094 30.04867187 -3.1640625 29.078125 C-1.6104466 26.30455568 0.04257982 25.93392216 3 25 C2.34 24.01 1.68 23.02 1 22 C0.8046875 18.64453125 0.8046875 18.64453125 0.875 14.8125 C0.89304687 13.54019531 0.91109375 12.26789062 0.9296875 10.95703125 C0.95289062 9.98121094 0.97609375 9.00539063 1 8 C0.11957031 8.01160156 -0.76085937 8.02320313 -1.66796875 8.03515625 C-3.41013672 8.04869141 -3.41013672 8.04869141 -5.1875 8.0625 C-6.33605469 8.07410156 -7.48460937 8.08570313 -8.66796875 8.09765625 C-11.59300586 8.01192832 -14.16316291 7.67849023 -17 7 C-16.67 6.34 -16.34 5.68 -16 5 C-12.40533783 4.6818883 -8.82995917 4.61979563 -5.22265625 4.5390625 C-4.15917969 4.36117188 -3.09570312 4.18328125 -2 4 C-0.47645258 2.08370232 -0.47645258 2.08370232 0 0 Z " fill="#DF885B" transform="translate(55,22)"/>
<path d="M0 0 C0.66 0 1.32 0 2 0 C4.78648323 3.30799018 5.95050084 5.34117312 6.27734375 9.69140625 C6.16519531 10.96886719 6.05304688 12.24632812 5.9375 13.5625 C5.79634766 15.48255859 5.79634766 15.48255859 5.65234375 17.44140625 C4.99264885 21.04010119 4.06298638 23.02807408 2 26 C1.63519531 26.66644531 1.27039063 27.33289063 0.89453125 28.01953125 C-1.95030577 32.73353916 -1.95030577 32.73353916 -5.03125 33.515625 C-7.1875 33.5625 -7.1875 33.5625 -11 33 C-13.25693432 30.74306568 -13.87292007 28.95858483 -15 26 C-15.65213539 24.65949948 -16.31379969 23.32338632 -17 22 C-12.46511628 21.62209302 -12.46511628 21.62209302 -10 23.625 C-9.34 24.07875 -8.68 24.5325 -8 25 C-4.86240027 24.17824769 -3.29744125 23.29744125 -1 21 C-0.5342637 18.44132526 -0.16515752 15.95312092 0.125 13.375 C0.21136719 12.66859375 0.29773438 11.9621875 0.38671875 11.234375 C0.59881183 9.49049859 0.80040991 7.7453516 1 6 C-1.45873768 6.14058476 -3.91685175 6.28722999 -6.375 6.4375 C-7.07367188 6.47681641 -7.77234375 6.51613281 -8.4921875 6.55664062 C-12.37360492 6.74280134 -12.37360492 6.74280134 -16 8 C-15.125 4.125 -15.125 4.125 -14 3 C-10.93113383 2.71525984 -7.86224703 2.55128201 -4.78515625 2.37890625 C-1.86415567 2.2677106 -1.86415567 2.2677106 0 0 Z " fill="#ED9961" transform="translate(81,19)"/>
<path d="M0 0 C1.45742463 -0.08096803 2.91612807 -0.13917774 4.375 -0.1875 C5.18710938 -0.22230469 5.99921875 -0.25710937 6.8359375 -0.29296875 C7.55007812 -0.19628906 8.26421875 -0.09960938 9 0 C9.66 0.99 10.32 1.98 11 3 C10.67 3.99 10.34 4.98 10 6 C11.9336755 7.9336755 15.17405883 7.34931944 17.75 7.4375 C22.62342985 7.56751569 22.62342985 7.56751569 26.93359375 5.6953125 C28.37398596 3.88737616 28.37398596 3.88737616 30 1 C30.99 0.67 31.98 0.34 33 0 C33.19627391 1.58226965 33.38165538 3.16589271 33.5625 4.75 C33.71912109 6.07257812 33.71912109 6.07257812 33.87890625 7.421875 C33.99684108 9.93274551 33.95716642 11.67769458 33 14 C30.17588235 14.94137255 28.47081968 15.11725382 25.55078125 15.09765625 C24.70322266 15.09443359 23.85566406 15.09121094 22.98242188 15.08789062 C22.10134766 15.07951172 21.22027344 15.07113281 20.3125 15.0625 C19.41982422 15.05798828 18.52714844 15.05347656 17.60742188 15.04882812 C15.40488013 15.03704983 13.20247401 15.02060164 11 15 C11 17.31 11 19.62 11 22 C10.34 22 9.68 22 9 22 C8.67 22.99 8.34 23.98 8 25 C4.37 24.34 0.74 23.68 -3 23 C-3 22.67 -3 22.34 -3 22 C0.3 21.67 3.6 21.34 7 21 C7.12375 20.236875 7.2475 19.47375 7.375 18.6875 C8 16 8 16 10 13 C9.34 13 8.68 13 8 13 C5.125 6.375 5.125 6.375 4 3 C1.99983534 1.79117904 1.99983534 1.79117904 0 1 C0 0.67 0 0.34 0 0 Z " fill="#1B1E8F" transform="translate(60,57)"/>
<path d="M0 0 C2.10305028 2.24570795 2.94963013 4.02241787 3.10888672 7.11328125 C2.98997764 9.59647344 2.73792659 12.03234514 2.4375 14.5 C2.36208984 15.34175781 2.28667969 16.18351562 2.20898438 17.05078125 C1.63453966 22.22485772 0.69547869 25.1222985 -3 29 C-3.67966676 30.66140763 -4.34938905 32.32700041 -5 34 C-7.98594424 35.49297212 -10.70853624 35.11755228 -14 35 C-16 34 -16 34 -16.8125 31.625 C-18.2915693 28.35547839 -19.93941855 27.72648184 -23 26 C-24.25433458 22.23699626 -24.10695422 18.72789091 -24.0625 14.8125 C-24.05798828 14.06291016 -24.05347656 13.31332031 -24.04882812 12.54101562 C-24.03706354 10.69397617 -24.01912865 8.84697787 -24 7 C-23.67 7 -23.34 7 -23 7 C-23 11.95 -23 16.9 -23 22 C-22.34 22.33 -21.68 22.66 -21 23 C-21.33 23.66 -21.66 24.32 -22 25 C-21.38125 25.12375 -20.7625 25.2475 -20.125 25.375 C-18 26 -18 26 -16 28 C-13.66761933 28.39501229 -13.66761933 28.39501229 -11.0625 28.375 C-9.74958984 28.41753906 -9.74958984 28.41753906 -8.41015625 28.4609375 C-5.87927402 28.21269624 -5.87927402 28.21269624 -4.24609375 26.2265625 C-2.10508855 22.40094193 -1.86215809 19.15948663 -1.875 14.8125 C-1.87242188 13.93207031 -1.86984375 13.05164062 -1.8671875 12.14453125 C-1.76134967 10.01796809 -1.76134967 10.01796809 -3 9 C-5.49058914 8.90002358 -7.94727395 8.86120373 -10.4375 8.875 C-11.13166016 8.87113281 -11.82582031 8.86726563 -12.54101562 8.86328125 C-16.39769757 8.80640165 -16.39769757 8.80640165 -20 10 C-19.125 6.125 -19.125 6.125 -18 5 C-16.31391034 4.92794489 -14.62499341 4.91613932 -12.9375 4.9375 C-12.01839844 4.94652344 -11.09929688 4.95554687 -10.15234375 4.96484375 C-9.44207031 4.97644531 -8.73179688 4.98804688 -8 5 C-7.71125 4.360625 -7.4225 3.72125 -7.125 3.0625 C-5.228943 -0.41360449 -4.0216034 0 0 0 Z " fill="#CE7E2D" transform="translate(30,17)"/>
<path d="M0 0 C2.97 0.495 2.97 0.495 6 1 C5.60167969 1.40089844 5.20335937 1.80179688 4.79296875 2.21484375 C3.99826172 3.06755859 3.99826172 3.06755859 3.1875 3.9375 C2.66542969 4.48277344 2.14335937 5.02804688 1.60546875 5.58984375 C-0.74127819 9.11281908 -1.79770443 12.96591808 -3 17 C-6.43782031 16.86116581 -9.87516029 16.71272946 -13.3125 16.5625 C-14.28896484 16.52318359 -15.26542969 16.48386719 -16.27148438 16.44335938 C-17.20927734 16.40146484 -18.14707031 16.35957031 -19.11328125 16.31640625 C-19.97735596 16.27974854 -20.84143066 16.24309082 -21.73168945 16.20532227 C-24 16 -24 16 -27 15 C-26.67 12.36 -26.34 9.72 -26 7 C-22.95300668 6.1038255 -21.35289103 5.87689848 -18.3125 6.9375 C-13.84319333 8.3710512 -9.63975058 8.93909188 -5 8 C-2.32428849 5.28016286 -2.32428849 5.28016286 -1 2 C-0.67 1.34 -0.34 0.68 0 0 Z " fill="#1321C5" transform="translate(28,56)"/>
<path d="M0 0 C0.75 1.75 0.75 1.75 1 4 C-1.28024871 7.0713554 -2.69746324 7.92744594 -6.453125 8.828125 C-7.70609375 8.96734375 -8.9590625 9.1065625 -10.25 9.25 C-11.51328125 9.39953125 -12.7765625 9.5490625 -14.078125 9.703125 C-15.04234375 9.80109375 -16.0065625 9.8990625 -17 10 C-15.68 10.66 -14.36 11.32 -13 12 C-14.65 12.33 -16.3 12.66 -18 13 C-19.485 18.445 -19.485 18.445 -21 24 C-21.33 24 -21.66 24 -22 24 C-22.33 25.65 -22.66 27.3 -23 29 C-25.48422878 25.25970049 -24.96894475 22.45474198 -24.3125 18.125 C-24.14363281 16.93132813 -23.97476563 15.73765625 -23.80078125 14.5078125 C-22.83488028 10.2766951 -21.71605154 6.48426258 -18.3515625 3.57421875 C-11.93470964 0.27868572 -7.06283544 -0.11970908 0 0 Z M-13 2 C-13 2.33 -13 2.66 -13 3 C-11.35 3 -9.7 3 -8 3 C-8 2.67 -8 2.34 -8 2 C-9.65 2 -11.3 2 -13 2 Z " fill="#DFA43B" transform="translate(56,18)"/>
<path d="M0 0 C0.90105469 0.00902344 1.80210938 0.01804687 2.73046875 0.02734375 C3.41753906 0.03894531 4.10460937 0.05054688 4.8125 0.0625 C2.48099952 3.69243774 0.49840746 6.62095281 -3.8125 7.75 C-6.28647803 7.97490709 -8.70425613 8.09685318 -11.1875 8.0625 C-12.52708388 13.99494289 -13.1875 19.98671522 -13.1875 26.0625 C-9.67591517 27.66779592 -7.04934993 28.48700869 -3.1875 28.0625 C0.35195066 25.44274912 3.24879321 22.01404631 4.48046875 17.75 C4.81478831 15.35073445 4.81478831 15.35073445 4.8125 12.0625 C5.1425 12.0625 5.4725 12.0625 5.8125 12.0625 C6.16562069 18.56253644 5.94013464 23.28840528 2.8125 29.0625 C0.33231247 31.54268753 -0.57265951 31.38611558 -4 31.4375 C-7.64962295 31.36893772 -9.02521762 31.15854468 -12.25 29.25 C-15.92086891 25.10547058 -15.53698019 20.44733121 -15.6875 15.1875 C-15.74164063 14.38441406 -15.79578125 13.58132812 -15.8515625 12.75390625 C-15.98549688 6.94689418 -15.98549688 6.94689418 -13.69921875 4.41308594 C-9.26696332 1.16820841 -5.511671 -0.07158014 0 0 Z " fill="#F7BF7D" transform="translate(23.1875,14.9375)"/>
<path d="M0 0 C1.32 0.66 2.64 1.32 4 2 C4 3.32 4 4.64 4 6 C4.66 6.33 5.32 6.66 6 7 C5.39215686 12.47058824 5.39215686 12.47058824 3.75 14.6875 C1.47092501 16.39680624 0.12759329 16.30989536 -2.6875 16.1875 C-3.49574219 16.16042969 -4.30398437 16.13335937 -5.13671875 16.10546875 C-5.75160156 16.07066406 -6.36648437 16.03585938 -7 16 C-7.33 17.98 -7.66 19.96 -8 22 C-8.66 22 -9.32 22 -10 22 C-9.41702414 11.64715283 -9.41702414 11.64715283 -6 7 C-5.5359375 5.88625 -5.5359375 5.88625 -5.0625 4.75 C-4 3 -4 3 -1.875 2.25 C-1.25625 2.1675 -0.6375 2.085 0 2 C0 1.34 0 0.68 0 0 Z " fill="#2C41C9" transform="translate(10,45)"/>
<path d="M0 0 C1.32 0.99 2.64 1.98 4 3 C4.66 2.67 5.32 2.34 6 2 C6.28875 2.78375 6.5775 3.5675 6.875 4.375 C8.1340494 7.31278193 9.1415622 8.5707811 12 10 C12.41901769 13.4253033 12.59785319 16.58963743 12 20 C10.07024076 22.4666895 7.97331443 24.00285187 5 25 C2.765625 24.61328125 2.765625 24.61328125 1 24 C0.47012987 18.7012987 0.47012987 18.7012987 1 16 C4 13.75 4 13.75 7 12 C7 10.68 7 9.36 7 8 C6.2575 7.731875 5.515 7.46375 4.75 7.1875 C2.13363446 6.05770579 0.19812889 4.79106798 -2 3 C-1.34 2.01 -0.68 1.02 0 0 Z " fill="#5AD5FC" transform="translate(28,45)"/>
<path d="M0 0 C3.17702374 1.58851187 4.62395623 3.82838691 6 7 C8.76706791 19.06050308 8.76706791 19.06050308 7.0390625 23.4296875 C6.69617188 23.94789062 6.35328125 24.46609375 6 25 C5.87625 24.236875 5.7525 23.47375 5.625 22.6875 C5.11897208 19.79732864 5.11897208 19.79732864 3 17 C2.34 14.36 1.68 11.72 1 9 C-4.94 8.34 -10.88 7.68 -17 7 C-16.67 6.34 -16.34 5.68 -16 5 C-12.40533783 4.6818883 -8.82995917 4.61979563 -5.22265625 4.5390625 C-4.15917969 4.36117188 -3.09570312 4.18328125 -2 4 C-0.47645258 2.08370232 -0.47645258 2.08370232 0 0 Z " fill="#AD7111" transform="translate(55,22)"/>
<path d="M0 0 C0.99 0.99 1.98 1.98 3 3 C1.22516348 4.96166141 -0.30295177 6.1731153 -2.625 7.5 C-5.29756313 8.83729307 -5.29756313 8.83729307 -6 12 C-4.7934375 12.6496875 -4.7934375 12.6496875 -3.5625 13.3125 C-1 15 -1 15 0 18 C-7.70185475 19.26092312 -14.38459684 18.5832711 -22 17 C-22 16.67 -22 16.34 -22 16 C-21.06027344 15.85304688 -21.06027344 15.85304688 -20.1015625 15.703125 C-19.28429688 15.55359375 -18.46703125 15.4040625 -17.625 15.25 C-16.81289063 15.11078125 -16.00078125 14.9715625 -15.1640625 14.828125 C-12.82290908 14.18250739 -12.82290908 14.18250739 -11.7109375 11.921875 C-11.47632813 11.28765625 -11.24171875 10.6534375 -11 10 C-10.34 10 -9.68 10 -9 10 C-7.68 7.03 -6.36 4.06 -5 1 C-4.01 1.66 -3.02 2.32 -2 3 C-1.34 2.01 -0.68 1.02 0 0 Z " fill="#259CE9" transform="translate(65,45)"/>
<path d="M0 0 C2.11299851 3.16949777 2.25293119 3.50595175 1.75 7 C1.66234375 7.680625 1.5746875 8.36125 1.484375 9.0625 C1 11 1 11 -1 14 C-4.04440276 14.33761035 -6.8948124 14.48917443 -9.9453125 14.51171875 C-11.27283035 14.53864555 -11.27283035 14.53864555 -12.62716675 14.56611633 C-15.45972904 14.62038985 -18.29212126 14.65416919 -21.125 14.6875 C-23.04299251 14.72065808 -24.96096253 14.75514631 -26.87890625 14.79101562 C-31.58581506 14.87612593 -36.29267194 14.94285537 -41 15 C-42.74565111 11.78360346 -43.204437 9.67986596 -43 6 C-41.68 7.32 -40.36 8.64 -39 10 C-39.33 10.66 -39.66 11.32 -40 12 C-35.68729764 11.85980449 -31.37489539 11.71181808 -27.0625 11.5625 C-25.85013672 11.52318359 -24.63777344 11.48386719 -23.38867188 11.44335938 C-13.65405918 11.1507156 -13.65405918 11.1507156 -4 10 C-0.73589226 6.41744272 0 4.8737526 0 0 Z " fill="#2054D5" transform="translate(67,67)"/>
<path d="M0 0 C0 4 0 4 -1.609375 5.70703125 C-4.58082033 7.31413648 -6.887563 7.50475886 -10.25 7.6875 C-11.32765625 7.75324219 -12.4053125 7.81898437 -13.515625 7.88671875 C-14.74539062 7.94279297 -14.74539062 7.94279297 -16 8 C-16.14308594 8.73605469 -16.28617187 9.47210938 -16.43359375 10.23046875 C-17.1745537 13.85350741 -18.0888468 17.41613075 -19 21 C-21 19 -21 19 -21.3125 15.3125 C-21.16210269 10.95097797 -20.32116271 7.7718894 -18 4 C-12.56658252 -0.41709478 -6.72700768 -0.49625467 0 0 Z " fill="#EBC760" transform="translate(83,15)"/>
<path d="M0 0 C0.66 0 1.32 0 2 0 C4.71435136 3.2731884 5.93397458 5.36175426 6.375 9.625 C6 13 6 13 4 17 C2.515 12.05 2.515 12.05 1 7 C-1.45840605 6.97308315 -3.91651882 6.95320198 -6.375 6.9375 C-7.42300781 6.92493164 -7.42300781 6.92493164 -8.4921875 6.91210938 C-12.37295376 6.8164558 -12.37295376 6.8164558 -16 8 C-15.125 4.125 -15.125 4.125 -14 3 C-10.93113383 2.71525984 -7.86224703 2.55128201 -4.78515625 2.37890625 C-1.86415567 2.2677106 -1.86415567 2.2677106 0 0 Z " fill="#CB9425" transform="translate(81,19)"/>
<path d="M0 0 C0.33 0 0.66 0 1 0 C1.20086443 3.71599191 1.1519437 4.77208445 -1 8 C-3.01538086 8.26464844 -3.01538086 8.26464844 -5.46484375 8.109375 C-6.34720703 8.05910156 -7.22957031 8.00882813 -8.13867188 7.95703125 C-9.06228516 7.88871094 -9.98589844 7.82039063 -10.9375 7.75 C-11.85724609 7.69714844 -12.77699219 7.64429687 -13.72460938 7.58984375 C-17.37739953 7.36071176 -20.51175471 7.16274843 -24 6 C-23.67 4.68 -23.34 3.36 -23 2 C-15.41 2 -7.82 2 0 2 C0 1.34 0 0.68 0 0 Z " fill="#141889" transform="translate(25,65)"/>
<path d="M0 0 C0.33 0 0.66 0 1 0 C2.56211813 6.9694501 2.56211813 6.9694501 0.125 11.4375 C-4.5568748 16.16458349 -12.57158851 15.05331053 -18.78515625 15.09765625 C-21.2109569 15.09108226 -23.63674838 15.0792649 -26.0625 15.0625 C-27.30966797 15.05798828 -28.55683594 15.05347656 -29.84179688 15.04882812 C-32.89458221 15.03713163 -35.94726498 15.02074086 -39 15 C-39 14.34 -39 13.68 -39 13 C-37.53977417 13.00169189 -37.53977417 13.00169189 -36.05004883 13.00341797 C-32.42462446 12.99973598 -28.80052424 12.95684914 -25.17553711 12.90234375 C-23.60921783 12.88421918 -22.04273908 12.87660886 -20.47631836 12.87988281 C-18.21864332 12.88275061 -15.96425022 12.84733773 -13.70703125 12.8046875 C-13.01100296 12.81378143 -12.31497467 12.82287537 -11.59785461 12.83224487 C-8.82329216 12.75002339 -6.63139491 12.5138902 -4.4390564 10.72955322 C-1.45985073 7.31771202 -0.32076565 4.49071907 0 0 Z " fill="#2066E3" transform="translate(66,64)"/>
<path d="M0 0 C0.33 1.32 0.66 2.64 1 4 C0.39414062 4.09796875 -0.21171875 4.1959375 -0.8359375 4.296875 C-6.5561345 5.31771016 -11.63760592 6.88402535 -16.96875 9.1953125 C-19 10 -19 10 -21 10 C-20.9375 7.75 -20.9375 7.75 -20 5 C-13.35244166 0.39784423 -7.92526879 -0.13432659 0 0 Z M-13 2 C-13 2.33 -13 2.66 -13 3 C-11.35 3 -9.7 3 -8 3 C-8 2.67 -8 2.34 -8 2 C-9.65 2 -11.3 2 -13 2 Z " fill="#F2D577" transform="translate(56,18)"/>
<path d="M0 0 C0.19627391 1.58226965 0.38165538 3.16589271 0.5625 4.75 C0.66691406 5.63171875 0.77132812 6.5134375 0.87890625 7.421875 C0.99456676 9.88432451 0.73638695 11.66538064 0 14 C-0.66 13.67 -1.32 13.34 -2 13 C-2.625 10.4375 -2.625 10.4375 -3 8 C-3.33 8.33 -3.66 8.66 -4 9 C-5.47652664 9.09880797 -6.95767236 9.13079245 -8.4375 9.1328125 C-9.77941406 9.13474609 -9.77941406 9.13474609 -11.1484375 9.13671875 C-12.08945313 9.13285156 -13.03046875 9.12898438 -14 9.125 C-15.41152344 9.13080078 -15.41152344 9.13080078 -16.8515625 9.13671875 C-17.74617188 9.13542969 -18.64078125 9.13414063 -19.5625 9.1328125 C-20.38878906 9.13168457 -21.21507813 9.13055664 -22.06640625 9.12939453 C-24 9 -24 9 -25 8 C-24.71269945 5.66055264 -24.38063221 3.3260857 -24 1 C-23.34 1.66 -22.68 2.32 -22 3 C-22.33 3.99 -22.66 4.98 -23 6 C-21.0663245 7.9336755 -17.82594117 7.34931944 -15.25 7.4375 C-10.36455391 7.55855665 -10.36455391 7.55855665 -6.03125 5.6953125 C-4.55871496 3.90035345 -4.55871496 3.90035345 -3 1 C-1 0 -1 0 0 0 Z " fill="#1921B0" transform="translate(93,57)"/>
<path d="M0 0 C0.680625 0.309375 1.36125 0.61875 2.0625 0.9375 C5.37789384 2.136685 8.5089308 2.5556821 12 3 C13.33917261 3.30903983 14.67653254 3.62942911 16 4 C15 6.5 15 6.5 13 9 C10.11459721 9.60776378 8.00185496 9.33353944 5 9 C2.7613435 6.7613435 2.1003605 4.93429467 1 2 C0.67 1.34 0.34 0.68 0 0 Z " fill="#C96537" transform="translate(65,43)"/>
<path d="M0 0 C0.99 0.66 1.98 1.32 3 2 C5.32387947 2.39387788 7.65793749 2.73486085 10 3 C10 3.33 10 3.66 10 4 C7.36 4.33 4.72 4.66 2 5 C2 5.99 2 6.98 2 8 C-1.3 8.33 -4.6 8.66 -8 9 C-8 5 -8 5 -6.8125 3.375 C-4.59565568 1.69325604 -2.68660095 0.73881526 0 0 Z " fill="#2C38A6" transform="translate(67,49)"/>
<path d="M0 0 C1.5 1.25 1.5 1.25 3 3 C3 4.32 3 5.64 3 7 C0.0625 9.125 0.0625 9.125 -3 11 C-3.33 11.66 -3.66 12.32 -4 13 C-7.99086171 13.91167945 -11.91465103 14.25292874 -16 14 C-18.75 11.5625 -18.75 11.5625 -20 9 C-19.34773438 9.17917969 -18.69546875 9.35835937 -18.0234375 9.54296875 C-12.28352474 10.94783583 -12.28352474 10.94783583 -6.5625 9.875 C-2.75133665 7.08634389 -0.83564107 4.67958999 0 0 Z " fill="#F7A267" transform="translate(55,40)"/>
<path d="M0 0 C1.8125 2.25 1.8125 2.25 3 5 C2.6875 7.3125 2.6875 7.3125 2 9 C1.33613281 8.68289062 0.67226563 8.36578125 -0.01171875 8.0390625 C-3.60924343 6.78815849 -7.0439801 6.54809948 -10.8125 6.375 C-11.50537109 6.33632813 -12.19824219 6.29765625 -12.91210938 6.2578125 C-14.60767015 6.16426432 -16.30379712 6.08107636 -18 6 C-18 5.67 -18 5.34 -18 5 C-14.7 5 -11.4 5 -8 5 C-7.34 3.68 -6.68 2.36 -6 1 C-4 0 -4 0 0 0 Z " fill="#DBA52D" transform="translate(30,17)"/>
<path d="M0 0 C1.32 1.32 2.64 2.64 4 4 C3.67 4.66 3.34 5.32 3 6 C22.305 6.495 22.305 6.495 42 7 C42 7.33 42 7.66 42 8 C28.8 8.33 15.6 8.66 2 9 C0.11656068 5.23312136 -0.22057835 3.97041037 0 0 Z " fill="#3C55B1" transform="translate(24,73)"/>
<path d="M0 0 C0 1.32 0 2.64 0 4 C-8.19042433 6.73014144 -17.83139106 5.25340936 -26 3 C-26 2.34 -26 1.68 -26 1 C-24.14375 1.2475 -24.14375 1.2475 -22.25 1.5 C-14.15956247 2.38609554 -7.09900506 0 0 0 Z " fill="#35ACF9" transform="translate(54,70)"/>
<path d="M0 0 C0 3 0 3 -1.54248047 5.15869141 C-4.90471119 7.67785931 -7.14698614 7.48717836 -11.3203125 7.4609375 C-12.0201828 7.46002106 -12.7200531 7.45910461 -13.44113159 7.4581604 C-14.91541354 7.45213486 -16.38968385 7.43642 -17.86376953 7.41162109 C-20.12447978 7.37500843 -22.38355487 7.37060255 -24.64453125 7.37109375 C-35.70472765 7.29527235 -35.70472765 7.29527235 -38 5 C-37.22398438 5.01047363 -36.44796875 5.02094727 -35.6484375 5.03173828 C-32.09899188 5.07356498 -28.54959833 5.09941072 -25 5.125 C-23.77925781 5.14175781 -22.55851562 5.15851563 -21.30078125 5.17578125 C-10.54352219 5.5600711 -10.54352219 5.5600711 -1 1.375 C-0.67 0.92125 -0.34 0.4675 0 0 Z " fill="#2781ED" transform="translate(64,70)"/>
<path d="M0 0 C1.32 0.66 2.64 1.32 4 2 C3.67 2.99 3.34 3.98 3 5 C0.9375 5.6875 0.9375 5.6875 -1 6 C-1.33 7.65 -1.66 9.3 -2 11 C-3.98 11.33 -5.96 11.66 -8 12 C-7.35241592 8.50304596 -6.09758712 5.87447123 -4 3 C-1.8125 2.1875 -1.8125 2.1875 0 2 C0 1.34 0 0.68 0 0 Z " fill="#A1B3E9" transform="translate(10,45)"/>
<path d="M0 0 C0.66 0.33 1.32 0.66 2 1 C1.6875 2.875 1.6875 2.875 1 5 C0.01 5.66 -0.98 6.32 -2 7 C-2.50680044 9.09632445 -2.50680044 9.09632445 -2.5625 11.4375 C-2.75414658 14.96263551 -2.9447428 15.9171142 -5 19 C-6.85270108 15.29459784 -6.53759832 10.90940092 -5.43359375 6.98828125 C-4.05737854 3.55134589 -3.13133236 2.0875549 0 0 Z " fill="#E2B247" transform="translate(68,17)"/>
<path d="M0 0 C0.99 -0.02513672 0.99 -0.02513672 2 -0.05078125 C4.74236389 0.44734344 6.07067944 1.30496374 8 3.3125 C8.171875 5.79296875 8.171875 5.79296875 7.75 8.5 C7.62109375 9.40105469 7.4921875 10.30210938 7.359375 11.23046875 C7.24078125 11.91753906 7.1221875 12.60460938 7 13.3125 C4.81024227 10.02786341 4.00193437 7.10553725 3 3.3125 C-0.63 2.9825 -4.26 2.6525 -8 2.3125 C-3.41501976 0.02000988 -3.41501976 0.02000988 0 0 Z " fill="#B67B18" transform="translate(79,22.6875)"/>
<path d="M0 0 C4.51410658 -0.37617555 4.51410658 -0.37617555 6.9375 1.5 C9.75481709 3.54895788 11.57804576 3.2793432 15 3 C16.67453799 2.708776 18.34550895 2.38929201 20 2 C18 5 18 5 15.8984375 5.65234375 C9.27075425 6.40129248 5.69418741 5.4797812 0 2 C0 1.34 0 0.68 0 0 Z " fill="#E6864F" transform="translate(64,41)"/>
<path d="M0 0 C0.99 0.99 1.98 1.98 3 3 C0.6227567 5.62747944 -1.97683181 7.18609908 -5 9 C-5.804375 9.8353125 -5.804375 9.8353125 -6.625 10.6875 C-8 12 -8 12 -11 12 C-10 10 -10 10 -8.5625 8.75 C-6.47073658 6.40722497 -5.86245323 3.98541502 -5 1 C-4.01 1.66 -3.02 2.32 -2 3 C-1.34 2.01 -0.68 1.02 0 0 Z " fill="#A99BCA" transform="translate(65,45)"/>
<path d="M0 0 C0.33 0.99 0.66 1.98 1 3 C0.67 3.66 0.34 4.32 0 5 C-2.97 5 -5.94 5 -9 5 C-9.66 3.68 -10.32 2.36 -11 1 C-5.555 0.505 -5.555 0.505 0 0 Z " fill="#D05F2E" transform="translate(53,53)"/>
<path d="M0 0 C0.66 0.33 1.32 0.66 2 1 C2.33 1.99 2.66 2.98 3 4 C5.97 4.33 8.94 4.66 12 5 C9 8 9 8 5.5 8.3125 C2 8 2 8 -1 6 C-1.25 3.4375 -1.25 3.4375 -1 1 C-0.67 0.67 -0.34 0.34 0 0 Z " fill="#D37E54" transform="translate(41,53)"/>
<path d="M0 0 C3.16115776 1.36983503 3.9927092 1.9890638 6 5 C6.50204844 7.29547702 6.90847843 9.61271391 7.25 11.9375 C7.44078125 13.16339844 7.6315625 14.38929687 7.828125 15.65234375 C7.99742562 18.94985815 7.80636041 20.31067984 6 23 C5.91363281 21.91460937 5.82726563 20.82921875 5.73828125 19.7109375 C5.59749321 18.2655136 5.45550205 16.82020654 5.3125 15.375 C5.23225586 14.30572266 5.23225586 14.30572266 5.15039062 13.21484375 C4.56445599 7.6612024 2.8967559 4.99118456 -1 1 C-0.67 0.67 -0.34 0.34 0 0 Z " fill="#D69B38" transform="translate(55,24)"/>
<path d="M0 0 C0.33 0 0.66 0 1 0 C1.19627391 1.58226965 1.38165538 3.16589271 1.5625 4.75 C1.66691406 5.63171875 1.77132812 6.5134375 1.87890625 7.421875 C1.99456676 9.88432451 1.73638695 11.66538064 1 14 C0.34 13.67 -0.32 13.34 -1 13 C-1.625 10.4375 -1.625 10.4375 -2 8 C-3.32 8.33 -4.64 8.66 -6 9 C-4.73046875 7.53515625 -3.4609375 6.0703125 -2.19140625 4.60546875 C-0.79128769 2.89287029 -0.79128769 2.89287029 0 0 Z " fill="#24269D" transform="translate(92,57)"/>
<path d="M0 0 C0.66 0 1.32 0 2 0 C2 0.99 2 1.98 2 3 C8.6 3.33 15.2 3.66 22 4 C22 4.33 22 4.66 22 5 C14.41 5.33 6.82 5.66 -1 6 C-1 1 -1 1 0 0 Z " fill="#1118BC" transform="translate(3,62)"/>
<path d="M0 0 C0.33 0.66 0.66 1.32 1 2 C2.2065625 2.433125 2.2065625 2.433125 3.4375 2.875 C6 4 6 4 7.25 5.875 C7.96607218 7.90387118 8.54927866 9.89663375 9 12 C5.28828073 10.76276024 3.7446651 8.7446651 1 6 C-1.16620544 4.70480005 -1.16620544 4.70480005 -3 4 C-2 2 -2 2 0 0 Z " fill="#778ED4" transform="translate(83,45)"/>
<path d="M0 0 C1.32 0.99 2.64 1.98 4 3 C4.66 2.67 5.32 2.34 6 2 C6.28875 2.78375 6.5775 3.5675 6.875 4.375 C7.84912254 7.09671632 7.84912254 7.09671632 10 9 C9.67 9.99 9.34 10.98 9 12 C8.34 11.67 7.68 11.34 7 11 C7 10.01 7 9.02 7 8 C6.2575 7.731875 5.515 7.46375 4.75 7.1875 C2.13363446 6.05770579 0.19812889 4.79106798 -2 3 C-1.34 2.01 -0.68 1.02 0 0 Z " fill="#848ECA" transform="translate(28,45)"/>
<path d="M0 0 C-0.33 1.65 -0.66 3.3 -1 5 C-4.76624671 6.25541557 -6.37188934 5.37061958 -10 4 C-10 3.01 -10 2.02 -10 1 C-3.375 0 -3.375 0 0 0 Z " fill="#B24821" transform="translate(26,46)"/>
<path d="M0 0 C2.97 0 5.94 0 9 0 C8.67 2.31 8.34 4.62 8 7 C6.68 6.34 5.36 5.68 4 5 C4 4.34 4 3.68 4 3 C2.68 2.34 1.36 1.68 0 1 C0 0.67 0 0.34 0 0 Z " fill="#141E97" transform="translate(60,57)"/>
<path d="M0 0 C1 2 1 2 0.3125 4.5 C-1 7 -1 7 -2.6875 8.3125 C-5.83356663 9.2478171 -8.73924509 9.12541365 -12 9 C-9 7 -9 7 -5 7 C-4.9175 6.21625 -4.835 5.4325 -4.75 4.625 C-4 2 -4 2 -1.9375 0.6875 C-1.298125 0.460625 -0.65875 0.23375 0 0 Z " fill="#5277E4" transform="translate(13,49)"/>
<path d="M0 0 C3.23294692 0.70967127 4.4596062 2.07018142 6.5625 4.5625 C3.68038698 5.52320434 1.86399956 5.66831883 -1.125 5.625 C-2.33736328 5.61146484 -2.33736328 5.61146484 -3.57421875 5.59765625 C-4.49654297 5.58025391 -4.49654297 5.58025391 -5.4375 5.5625 C-3.13944384 0.72448704 -3.13944384 0.72448704 0 0 Z " fill="#3D8DD7" transform="translate(55.4375,55.4375)"/>
<path d="M0 0 C2.64 0 5.28 0 8 0 C8.28875 0.804375 8.5775 1.60875 8.875 2.4375 C9.73262568 5.1326468 9.73262568 5.1326468 12 6 C7.91621717 5.25749403 3.98060777 4.17076699 0 3 C0 2.01 0 1.02 0 0 Z " fill="#FCAB70" transform="translate(63,38)"/>
<path d="M0 0 C11.22 0 22.44 0 34 0 C34 0.33 34 0.66 34 1 C22.78 1 11.56 1 0 1 C0 0.67 0 0.34 0 0 Z " fill="#0D49A1" transform="translate(30,82)"/>
<path d="M0 0 C0.33 0 0.66 0 1 0 C2.61050328 9.01531729 2.61050328 9.01531729 0.0625 13.125 C-0.618125 13.74375 -1.29875 14.3625 -2 15 C-2.99 14.67 -3.98 14.34 -5 14 C-4.52949219 13.44828125 -4.05898438 12.8965625 -3.57421875 12.328125 C-1.8197887 9.73348403 -1.33741363 7.81872585 -0.8125 4.75 C-0.65394531 3.85796875 -0.49539062 2.9659375 -0.33203125 2.046875 C-0.22246094 1.37140625 -0.11289062 0.6959375 0 0 Z " fill="#DB7544" transform="translate(29,31)"/>
<path d="M0 0 C0.33 0 0.66 0 1 0 C0.25 6.75 0.25 6.75 -2 9 C-4.3828125 8.9765625 -4.3828125 8.9765625 -7.125 8.625 C-8.03507813 8.51414062 -8.94515625 8.40328125 -9.8828125 8.2890625 C-10.58148438 8.19367187 -11.28015625 8.09828125 -12 8 C-12 7.67 -12 7.34 -12 7 C-6.555 6.01 -6.555 6.01 -1 5 C-0.67 3.35 -0.34 1.7 0 0 Z " fill="#3658DD" transform="translate(13,51)"/>
<path d="M0 0 C2.9719385 1.12451727 5.33440687 2.22293791 8 4 C8.6875 6.125 8.6875 6.125 9 8 C8.01 8.495 8.01 8.495 7 9 C3.26115668 6.34345343 1.35021826 4.41889613 0 0 Z " fill="#2740C7" transform="translate(27,49)"/>
<path d="M0 0 C0.99 0.33 1.98 0.66 3 1 C3 1.99 3 2.98 3 4 C-2.25714286 8 -2.25714286 8 -5 8 C-4.66275164 4.88045262 -4.3790035 3.3790035 -2.125 1.125 C-1.42375 0.75375 -0.7225 0.3825 0 0 Z " fill="#E4D19C" transform="translate(40,20)"/>
<path d="M0 0 C3.63 0.33 7.26 0.66 11 1 C11 1.33 11 1.66 11 2 C7.7 2.33 4.4 2.66 1 3 C0.34 5.31 -0.32 7.62 -1 10 C-1.33 10 -1.66 10 -2 10 C-2.25 3.375 -2.25 3.375 0 0 Z " fill="#FAC98E" transform="translate(67,25)"/>
<path d="M0 0 C0.66 0.33 1.32 0.66 2 1 C1.505 1.45375 1.01 1.9075 0.5 2.375 C-1.22609337 3.87635519 -1.22609337 3.87635519 -1 6 C-3.52475462 7.26237731 -5.31200466 7.09856404 -8.125 7.0625 C-9.03507812 7.05347656 -9.94515625 7.04445313 -10.8828125 7.03515625 C-11.58148438 7.02355469 -12.28015625 7.01195312 -13 7 C-13 6.67 -13 6.34 -13 6 C-10.36 6 -7.72 6 -5 6 C-4.731875 5.38125 -4.46375 4.7625 -4.1875 4.125 C-3 2 -3 2 0 0 Z " fill="#EC8E54" transform="translate(56,47)"/>
<path d="M0 0 C1.65 0 3.3 0 5 0 C5.5625 1.9375 5.5625 1.9375 6 4 C5 5 5 5 2.4375 5.0625 C1.2309375 5.0315625 1.2309375 5.0315625 0 5 C0 3.35 0 1.7 0 0 Z " fill="#7AE3FE" transform="translate(29,62)"/>
<path d="M0 0 C0.66 0 1.32 0 2 0 C0.92598892 2.91517292 0.22189824 4.77810176 -2 7 C-4.3828125 7.1953125 -4.3828125 7.1953125 -7.125 7.125 C-8.49011719 7.09792969 -8.49011719 7.09792969 -9.8828125 7.0703125 C-10.58148438 7.04710937 -11.28015625 7.02390625 -12 7 C-12 6.67 -12 6.34 -12 6 C-8.97265625 5.75585938 -8.97265625 5.75585938 -5.9453125 5.51171875 C-3.60480784 5.12606964 -3.60480784 5.12606964 -2 2 C-1.34 2 -0.68 2 0 2 C0 1.34 0 0.68 0 0 Z " fill="#F69F63" transform="translate(26,39)"/>
<path d="M0 0 C0.33 1.32 0.66 2.64 1 4 C-4.625 5.125 -4.625 5.125 -8 4 C-8 3.34 -8 2.68 -8 2 C-5.36 1.34 -2.72 0.68 0 0 Z " fill="#1B28A7" transform="translate(25,50)"/>
<path d="M0 0 C0.33 0.66 0.66 1.32 1 2 C-0.32 2.33 -1.64 2.66 -3 3 C-3.33 4.32 -3.66 5.64 -4 7 C-5.65 7 -7.3 7 -9 7 C-6.34345343 3.26115668 -4.41889613 1.35021826 0 0 Z " fill="#546ACB" transform="translate(67,49)"/>
<path d="M0 0 C0.66 0.33 1.32 0.66 2 1 C1.61402985 3.79828356 1.19863427 4.8205884 -0.9375 6.75 C-3 8 -3 8 -5 8 C-3.375 2.25 -3.375 2.25 0 0 Z " fill="#F8E799" transform="translate(68,17)"/>
<path d="M0 0 C2.64 0 5.28 0 8 0 C8 0.99 8 1.98 8 3 C5.36 3 2.72 3 0 3 C0 2.01 0 1.02 0 0 Z " fill="#B8461C" transform="translate(70,47)"/>
<path d="M0 0 C1.85625 0.061875 1.85625 0.061875 3.75 0.125 C4.08 1.445 4.41 2.765 4.75 4.125 C4.09 3.795 3.43 3.465 2.75 3.125 C0.87943209 2.8974985 -0.99685958 2.71537189 -2.875 2.5625 C-3.87789063 2.47871094 -4.88078125 2.39492188 -5.9140625 2.30859375 C-6.68492188 2.24800781 -7.45578125 2.18742187 -8.25 2.125 C-5.3504339 0.46623921 -3.33364791 -0.1111216 0 0 Z " fill="#965B05" transform="translate(79.25,22.875)"/>
<path d="M0 0 C2.0625 2.25 2.0625 2.25 4 5 C3.75 7.3125 3.75 7.3125 3 9 C-0.39914975 7.86695008 -1.05254451 6.87481525 -3 4 C-2.34 3.67 -1.68 3.34 -1 3 C-0.67 2.01 -0.34 1.02 0 0 Z " fill="#DDB453" transform="translate(29,17)"/>
<path d="M0 0 C2.64 0 5.28 0 8 0 C7.67 0.99 7.34 1.98 7 3 C4.03 3 1.06 3 -2 3 C-1.34 2.67 -0.68 2.34 0 2 C0 1.34 0 0.68 0 0 Z " fill="#EDC14B" transform="translate(15,19)"/>
<path d="M0 0 C0.66 0.33 1.32 0.66 2 1 C2 1.99 2 2.98 2 4 C-1.33333333 7 -1.33333333 7 -4 7 C-4.33 6.01 -4.66 5.02 -5 4 C-3.35 2.68 -1.7 1.36 0 0 Z " fill="#F7ECA9" transform="translate(13,17)"/>
<path d="M0 0 C0.66 0 1.32 0 2 0 C3.45606519 4.52092968 2.27032841 7.51648796 1 12 C0.67 12 0.34 12 0 12 C0 8.04 0 4.08 0 0 Z " fill="#E1AA38" transform="translate(8,24)"/>
<path d="M0 0 C3.96 0.33 7.92 0.66 12 1 C7.73878555 3.13060722 5.631329 3 1 3 C0.34 3.66 -0.32 4.32 -1 5 C-0.67 3.35 -0.34 1.7 0 0 Z " fill="#FCD59C" transform="translate(12,25)"/>
<path d="M0 0 C2.25 -0.25 2.25 -0.25 5 0 C7.3125 2 7.3125 2 9 4 C5.37471432 4.20140476 3.13498292 3.85776765 0 2 C0 1.34 0 0.68 0 0 Z " fill="#F18F57" transform="translate(64,41)"/>
<path d="M0 0 C6.625 -0.25 6.625 -0.25 10 2 C8.1128125 1.9071875 8.1128125 1.9071875 6.1875 1.8125 C2.83041021 1.76367078 2.83041021 1.76367078 0 3.5 C-0.33 3.995 -0.66 4.49 -1 5 C-0.67 3.35 -0.34 1.7 0 0 Z " fill="#FDDAA0" transform="translate(38,30)"/>
<path d="M0 0 C0.33 0 0.66 0 1 0 C2.14507772 5.28497409 2.14507772 5.28497409 2 8 C-0.4375 10.5 -0.4375 10.5 -3 12 C-3.66 11.67 -4.32 11.34 -5 11 C-4.360625 10.29875 -3.72125 9.5975 -3.0625 8.875 C-0.83613898 5.77158767 -0.34919057 3.75379861 0 0 Z " fill="#1F73DF" transform="translate(66,64)"/>
<path d="M0 0 C1.98 0 3.96 0 6 0 C6 0.99 6 1.98 6 3 C3.69 3 1.38 3 -1 3 C-0.67 2.01 -0.34 1.02 0 0 Z " fill="#EBBB43" transform="translate(70,19)"/>
<path d="M0 0 C0.66 1.32 1.32 2.64 2 4 C0.1875 6 0.1875 6 -2 8 C-2.99 8 -3.98 8 -5 8 C-4 6 -4 6 -2.5 4.5625 C-0.74916008 2.9622647 -0.74916008 2.9622647 0 0 Z " fill="#ACC4EB" transform="translate(59,49)"/>
<path d="M0 0 C2.35171131 0.59861742 4.6859378 1.26924352 7 2 C7.33 2.66 7.66 3.32 8 4 C6.68 4.33 5.36 4.66 4 5 C2.68 3.35 1.36 1.7 0 0 Z " fill="#E58867" transform="translate(35,49)"/>
<path d="M0 0 C3.3 0 6.6 0 10 0 C10 0.33 10 0.66 10 1 C9.06027344 1.19916016 9.06027344 1.19916016 8.1015625 1.40234375 C6.87566406 1.66724609 6.87566406 1.66724609 5.625 1.9375 C4.81289062 2.11152344 4.00078125 2.28554688 3.1640625 2.46484375 C0.970537 2.92330693 0.970537 2.92330693 -1 4 C-0.67 2.68 -0.34 1.36 0 0 Z " fill="#C1841A" transform="translate(11,23)"/>
<path d="M0 0 C2.91517292 1.07401108 4.77810176 1.77810176 7 4 C6.34 4 5.68 4 5 4 C5 4.99 5 5.98 5 7 C4.34 7 3.68 7 3 7 C2.690625 6.21625 2.38125 5.4325 2.0625 4.625 C1.07124962 2.07669872 1.07124962 2.07669872 0 0 Z " fill="#D16640" transform="translate(65,43)"/>
<path d="M0 0 C0.33 0 0.66 0 1 0 C1 2.64 1 5.28 1 8 C0.67 8 0.34 8 0 8 C0 5.36 0 2.72 0 0 Z " fill="#B4644F" transform="translate(87,32)"/>
<path d="M0 0 C0.33 0 0.66 0 1 0 C1 1.98 1 3.96 1 6 C0.67 6 0.34 6 0 6 C0 4.02 0 2.04 0 0 Z " fill="#A95400" transform="translate(88,26)"/>
<path d="M0 0 C0.66 0.66 1.32 1.32 2 2 C1.34 2.66 0.68 3.32 0 4 C0 2.68 0 1.36 0 0 Z " fill="#BA9054" transform="translate(33,24)"/>
<path d="M0 0 C1 4 1 4 1 4 Z " fill="#007FFF" transform="translate(22,73)"/>
<path d="M0 0 C1 4 1 4 1 4 Z " fill="#C49F00" transform="translate(84,17)"/>
<path d="" fill="#C39657" transform="translate(0,0)"/>
<path d="" fill="#FFB81C" transform="translate(0,0)"/>
<path d="" fill="#6A6AD4" transform="translate(0,0)"/>
<path d="" fill="#7FFFFF" transform="translate(0,0)"/>
<path d="" fill="#FFFF3F" transform="translate(0,0)"/>
<path d="" fill="#FFFF7F" transform="translate(0,0)"/>
<path d="" fill="#FF3F00" transform="translate(0,0)"/>
<path d="" fill="#00FFFF" transform="translate(0,0)"/>
<path d="" fill="#0000FF" transform="translate(0,0)"/>
<path d="" fill="#5555AA" transform="translate(0,0)"/>
<path d="" fill="#AA7FAA" transform="translate(0,0)"/>
<path d="" fill="#5555FF" transform="translate(0,0)"/>
<path d="" fill="#AAAAFF" transform="translate(0,0)"/>
<path d="" fill="#5555AA" transform="translate(0,0)"/>
<path d="" fill="#AAAAFF" transform="translate(0,0)"/>
<path d="" fill="#5555AA" transform="translate(0,0)"/>
<path d="" fill="#AAAAFF" transform="translate(0,0)"/>
<path d="" fill="#3F7FBF" transform="translate(0,0)"/>
<path d="" fill="#BFBFBF" transform="translate(0,0)"/>
<path d="" fill="#FFAA55" transform="translate(0,0)"/>
<path d="" fill="#AA5500" transform="translate(0,0)"/>
<path d="" fill="#FF0000" transform="translate(0,0)"/>
<path d="" fill="#FF5555" transform="translate(0,0)"/>
<path d="" fill="#FF7F7F" transform="translate(0,0)"/>
<path d="" fill="#BF3F3F" transform="translate(0,0)"/>
<path d="" fill="#FF5500" transform="translate(0,0)"/>
<path d="" fill="#FFFF3F" transform="translate(0,0)"/>
<path d="" fill="#AA5500" transform="translate(0,0)"/>
<path d="" fill="#FF9933" transform="translate(0,0)"/>
<path d="" fill="#CC9933" transform="translate(0,0)"/>
<path d="" fill="#FF5500" transform="translate(0,0)"/>
<path d="" fill="#FFFFAA" transform="translate(0,0)"/>
<path d="" fill="#FFFF55" transform="translate(0,0)"/>
<path d="" fill="#FFFFFF" transform="translate(0,0)"/>
</svg>
